<?xml version="1.0" encoding="utf-8"?>
<!-- Generator: Adobe Illustrator 25.0.1, SVG Export Plug-In . SVG Version: 6.00 Build 0)  -->
<svg version="1.1" id="Layer_1" xmlns="http://www.w3.org/2000/svg" xmlns:xlink="http://www.w3.org/1999/xlink" x="0px" y="0px"
	 viewBox="0 0 792 612" style="enable-background:new 0 0 792 612;" xml:space="preserve">
<style type="text/css">
	.st0{fill:url(#SVGID_1_);}
	.st1{fill:#00AEEF;}
	.st2{fill:#FFFFFF;}
	.st3{fill:url(#SVGID_2_);}
</style>
<g>
	<linearGradient id="SVGID_1_" gradientUnits="userSpaceOnUse" x1="500.2413" y1="298.6761" x2="670.4301" y2="298.6761">
		<stop  offset="0" style="stop-color:#00AEEF"/>
		<stop  offset="1" style="stop-color:#1F1F56"/>
	</linearGradient>
	<circle class="st0" cx="585.34" cy="298.68" r="85.09"/>
	<g>
		<g>
			<path class="st1" d="M218.64,277.07v72.91c0,8.34-0.89,15.51-2.67,21.52c-1.78,6.01-4.63,10.97-8.55,14.9
				c-3.92,3.92-9.06,6.83-15.4,8.73c-6.34,1.9-14.24,2.85-23.68,2.85c-8.64,0-16.37-1.21-23.17-3.63
				c-6.8-2.42-12.04-5.55-15.72-9.38c-3.68-3.83-5.52-7.77-5.52-11.81c0-3.07,1.04-5.56,3.13-7.49c2.08-1.93,4.6-2.9,7.54-2.9
				c3.68,0,6.9,1.62,9.65,4.87c1.35,1.65,2.74,3.32,4.18,5.01c1.44,1.68,3.03,3.13,4.78,4.32s3.85,2.08,6.3,2.67
				c2.45,0.58,5.27,0.87,8.46,0.87c6.5,0,11.54-0.9,15.12-2.71c3.59-1.81,6.1-4.34,7.54-7.59c1.44-3.25,2.28-6.73,2.53-10.44
				c0.24-3.71,0.43-9.67,0.55-17.88c-3.86,5.39-8.32,9.5-13.38,12.32c-5.06,2.82-11.08,4.23-18.07,4.23
				c-8.4,0-15.74-2.14-22.02-6.44c-6.28-4.29-11.11-10.3-14.48-18.02c-3.37-7.72-5.06-16.64-5.06-26.76
				c0-7.54,1.03-14.34,3.08-20.41c2.05-6.07,4.98-11.19,8.78-15.35c3.8-4.17,8.18-7.31,13.15-9.42c4.97-2.11,10.42-3.17,16.37-3.17
				c7.11,0,13.27,1.36,18.48,4.09c5.21,2.73,10.05,7,14.53,12.83v-3.4c0-4.35,1.07-7.72,3.22-10.11c2.14-2.39,4.9-3.59,8.28-3.59
				c4.84,0,8.06,1.58,9.65,4.74C217.84,266.57,218.64,271.12,218.64,277.07z M145.91,308.88c0,10.18,2.22,17.87,6.67,23.08
				c4.44,5.21,10.19,7.82,17.24,7.82c4.17,0,8.11-1.12,11.81-3.36c3.71-2.24,6.73-5.61,9.06-10.11c2.33-4.51,3.49-9.98,3.49-16.41
				c0-10.24-2.25-18.21-6.76-23.91c-4.51-5.7-10.44-8.55-17.79-8.55c-7.17,0-12.92,2.73-17.24,8.18
				C148.07,291.08,145.91,298.83,145.91,308.88z"/>
			<path class="st1" d="M266.45,324.51v20.96c0,5.09-1.2,8.9-3.59,11.45c-2.39,2.54-5.42,3.82-9.1,3.82c-3.62,0-6.59-1.29-8.92-3.86
				c-2.33-2.57-3.49-6.37-3.49-11.4V275.6c0-11.28,4.08-16.92,12.23-16.92c4.17,0,7.17,1.32,9.01,3.95
				c1.84,2.64,2.85,6.53,3.03,11.68c3-5.15,6.08-9.04,9.24-11.68c3.16-2.64,7.37-3.95,12.64-3.95c5.27,0,10.39,1.32,15.35,3.95
				c4.97,2.64,7.45,6.13,7.45,10.48c0,3.07-1.06,5.59-3.17,7.59c-2.11,1.99-4.4,2.99-6.85,2.99c-0.92,0-3.14-0.57-6.67-1.7
				c-3.53-1.13-6.64-1.7-9.33-1.7c-3.68,0-6.68,0.97-9.01,2.9c-2.33,1.93-4.14,4.8-5.42,8.6c-1.29,3.8-2.18,8.32-2.67,13.56
				C266.7,310.58,266.45,316.97,266.45,324.51z"/>
			<path class="st1" d="M336.7,247c-3.49,0-6.48-1.07-8.96-3.22c-2.48-2.14-3.72-5.18-3.72-9.1c0-3.55,1.27-6.48,3.82-8.78
				c2.54-2.3,5.5-3.45,8.87-3.45c3.25,0,6.13,1.04,8.64,3.13c2.51,2.08,3.77,5.12,3.77,9.1c0,3.86-1.23,6.88-3.68,9.06
				C342.98,245.92,340.07,247,336.7,247z M349.11,272.93v72.54c0,5.03-1.2,8.83-3.59,11.4c-2.39,2.57-5.42,3.86-9.1,3.86
				c-3.68,0-6.67-1.32-8.96-3.95c-2.3-2.64-3.45-6.4-3.45-11.31v-71.81c0-4.96,1.15-8.7,3.45-11.22c2.3-2.51,5.29-3.77,8.96-3.77
				c3.68,0,6.71,1.26,9.1,3.77C347.92,264.96,349.11,268.46,349.11,272.93z"/>
			<path class="st1" d="M443.81,346.39v-2.48c-3.37,3.86-6.7,7-9.98,9.42c-3.28,2.42-6.84,4.26-10.67,5.52
				c-3.83,1.26-8.01,1.88-12.55,1.88c-6.01,0-11.57-1.27-16.69-3.82c-5.12-2.54-9.55-6.17-13.29-10.9
				c-3.74-4.72-6.57-10.27-8.5-16.64c-1.93-6.37-2.9-13.27-2.9-20.69c0-15.69,3.83-27.92,11.49-36.69
				c7.66-8.76,17.75-13.15,30.25-13.15c7.23,0,13.33,1.24,18.3,3.72c4.96,2.48,9.81,6.3,14.53,11.45v-37.05
				c0-5.15,1.03-9.04,3.08-11.68c2.05-2.64,4.98-3.95,8.78-3.95c3.8,0,6.73,1.21,8.78,3.63c2.05,2.42,3.08,5.99,3.08,10.71v110.7
				c0,4.78-1.1,8.37-3.31,10.76s-5.06,3.59-8.55,3.59c-3.43,0-6.27-1.24-8.5-3.72C444.93,354.53,443.81,350.99,443.81,346.39z
				 M394.44,309.53c0,6.8,1.06,12.6,3.17,17.38c2.11,4.78,5.01,8.38,8.69,10.8c3.68,2.42,7.69,3.63,12.04,3.63
				c4.41,0,8.44-1.15,12.09-3.45c3.65-2.3,6.56-5.82,8.73-10.57c2.17-4.75,3.26-10.68,3.26-17.79c0-6.68-1.09-12.43-3.26-17.24
				c-2.18-4.81-5.12-8.49-8.83-11.03c-3.71-2.54-7.77-3.82-12.18-3.82c-4.6,0-8.7,1.3-12.32,3.91c-3.62,2.61-6.42,6.34-8.41,11.22
				C395.43,297.43,394.44,303.09,394.44,309.53z"/>
		</g>
		<g>
			<polygon class="st2" points="528.14,281.42 633.03,258.65 582.24,352.89 574.21,302.76 			"/>
			<linearGradient id="SVGID_2_" gradientUnits="userSpaceOnUse" x1="574.2144" y1="305.7687" x2="633.0258" y2="305.7687">
				<stop  offset="0" style="stop-color:#00AEEF"/>
				<stop  offset="1" style="stop-color:#66B3E3"/>
			</linearGradient>
			<polygon class="st3" points="574.21,302.76 633.03,258.65 582.24,352.89 			"/>
		</g>
	</g>
</g>
</svg>
